<svg width="126" height="126" viewBox="0 0 126 126" fill="none" xmlns="http://www.w3.org/2000/svg">
<g clip-path="url(#clip0_1413_4984)">
<path d="M98.4851 90.515C92.642 98.0504 84.5518 103.53 75.3862 106.16C66.2207 108.791 56.4559 108.435 47.5061 105.144C38.5564 101.854 30.8865 95.7999 25.6074 87.8592C20.3283 79.9184 17.7141 70.5032 18.1435 60.9775C18.573 51.4517 22.0238 42.31 27.996 34.8765C33.9682 27.443 42.1518 22.1037 51.3613 19.632C60.5708 17.1603 70.328 17.6845 79.2197 21.1288C88.1114 24.5731 95.6757 30.7585 100.817 38.7891" stroke="#1A5EFF" stroke-width="4.06322"/>
<path d="M75.9711 72.0753C73.9081 74.7358 71.0517 76.6705 67.8156 77.5992C64.5796 78.5278 61.1319 78.4022 57.972 77.2405C54.8121 76.0787 52.1041 73.9412 50.2402 71.1376C48.3763 68.334 47.4534 65.0097 47.605 61.6465C47.7566 58.2832 48.975 55.0556 51.0836 52.431C53.1922 49.8065 56.0815 47.9213 59.3331 47.0486C62.5847 46.176 66.0297 46.3611 69.1691 47.5771C72.3085 48.7932 74.9792 50.9771 76.7945 53.8125" stroke="#1A5EFF" stroke-width="4.06322"/>
<path d="M37.3816 62.696C37.3816 57.3203 39.0847 52.0842 42.2441 47.7461C45.4035 43.408 49.8552 40.1932 54.9544 38.5673C60.0536 36.9415 65.5355 36.989 70.606 38.703C75.6765 40.417 80.0723 43.7085 83.1568 48.1007C86.2413 52.4929 87.8542 57.7578 87.7619 63.1327C87.6696 68.5076 85.8769 73.7134 82.6435 77.9961C79.4101 82.2787 74.9038 85.4159 69.7775 86.9531" stroke="#1A5EFF" stroke-width="4.06322"/>
<circle cx="62.7559" cy="62.7563" r="34.9682" transform="rotate(45 62.7559 62.7563)" stroke="#1A5EFF" stroke-width="4.06322"/>
</g>
<defs>
<clipPath id="clip0_1413_4984">
<rect width="126" height="126" rx="20" fill="white"/>
</clipPath>
</defs>
</svg>
