<svg width="439" height="200" viewBox="0 0 439 200" fill="none" xmlns="http://www.w3.org/2000/svg">
<path d="M135.485 127.515C129.642 135.05 121.552 140.53 112.386 143.16C103.221 145.791 93.4559 145.435 84.5061 142.144C75.5564 138.854 67.8865 132.8 62.6074 124.859C57.3283 116.918 54.7141 107.503 55.1435 97.9775C55.573 88.4517 59.0238 79.31 64.996 71.8765C70.9682 64.443 79.1518 59.1037 88.3613 56.632C97.5708 54.1603 107.328 54.6845 116.22 58.1288C125.111 61.5731 132.676 67.7585 137.817 75.7891" stroke="#1A5EFF" stroke-width="4.06322"/>
<path d="M112.971 109.075C110.908 111.736 108.052 113.671 104.816 114.599C101.58 115.528 98.1319 115.402 94.972 114.24C91.8121 113.079 89.1041 110.941 87.2402 108.138C85.3763 105.334 84.4534 102.01 84.605 98.6465C84.7566 95.2832 85.975 92.0556 88.0836 89.431C90.1922 86.8065 93.0815 84.9213 96.3331 84.0486C99.5847 83.176 103.03 83.3611 106.169 84.5771C109.308 85.7932 111.979 87.9771 113.794 90.8125" stroke="#1A5EFF" stroke-width="4.06322"/>
<path d="M74.3816 99.696C74.3816 94.3203 76.0847 89.0842 79.2441 84.7461C82.4035 80.408 86.8552 77.1932 91.9544 75.5673C97.0536 73.9415 102.535 73.989 107.606 75.703C112.676 77.417 117.072 80.7085 120.157 85.1007C123.241 89.4929 124.854 94.7578 124.762 100.133C124.67 105.508 122.877 110.713 119.643 114.996C116.41 119.279 111.904 122.416 106.777 123.953" stroke="#1A5EFF" stroke-width="4.06322"/>
<circle cx="99.7578" cy="99.7563" r="34.9682" transform="rotate(45 99.7578 99.7563)" stroke="#1A5EFF" stroke-width="4.06322"/>
<path d="M154.32 100.92C154.32 98.1467 154.92 95.68 156.12 93.52C157.32 91.3333 158.987 89.64 161.12 88.44C163.28 87.2133 165.72 86.6 168.44 86.6C171.773 86.6 174.627 87.48 177 89.24C179.373 91 180.96 93.4 181.76 96.44H174.24C173.68 95.2667 172.88 94.3733 171.84 93.76C170.827 93.1467 169.667 92.84 168.36 92.84C166.253 92.84 164.547 93.5733 163.24 95.04C161.933 96.5067 161.28 98.4667 161.28 100.92C161.28 103.373 161.933 105.333 163.24 106.8C164.547 108.267 166.253 109 168.36 109C169.667 109 170.827 108.693 171.84 108.08C172.88 107.467 173.68 106.573 174.24 105.4H181.76C180.96 108.44 179.373 110.84 177 112.6C174.627 114.333 171.773 115.2 168.44 115.2C165.72 115.2 163.28 114.6 161.12 113.4C158.987 112.173 157.32 110.48 156.12 108.32C154.92 106.16 154.32 103.693 154.32 100.92ZM202.669 115L196.829 104.4H195.189V115H188.349V86.92H199.829C202.042 86.92 203.922 87.3067 205.469 88.08C207.042 88.8533 208.215 89.92 208.989 91.28C209.762 92.6133 210.149 94.1067 210.149 95.76C210.149 97.6267 209.615 99.2933 208.549 100.76C207.509 102.227 205.962 103.267 203.909 103.88L210.389 115H202.669ZM195.189 99.56H199.429C200.682 99.56 201.615 99.2533 202.229 98.64C202.869 98.0267 203.189 97.16 203.189 96.04C203.189 94.9733 202.869 94.1333 202.229 93.52C201.615 92.9067 200.682 92.6 199.429 92.6H195.189V99.56ZM240.923 86.92L231.203 105.72V115H224.362V105.72L214.642 86.92H222.402L227.842 98.68L233.243 86.92H240.923ZM267.478 95.96C267.478 97.5867 267.105 99.08 266.358 100.44C265.612 101.773 264.465 102.853 262.918 103.68C261.372 104.507 259.452 104.92 257.158 104.92H252.918V115H246.078V86.92H257.158C259.398 86.92 261.292 87.3067 262.838 88.08C264.385 88.8533 265.545 89.92 266.318 91.28C267.092 92.64 267.478 94.2 267.478 95.96ZM256.638 99.48C257.945 99.48 258.918 99.1733 259.558 98.56C260.198 97.9467 260.518 97.08 260.518 95.96C260.518 94.84 260.198 93.9733 259.558 93.36C258.918 92.7467 257.945 92.44 256.638 92.44H252.918V99.48H256.638ZM293.639 86.92V92.4H286.199V115H279.359V92.4H271.919V86.92H293.639ZM312.752 115.28C310.112 115.28 307.686 114.667 305.472 113.44C303.286 112.213 301.539 110.507 300.232 108.32C298.952 106.107 298.312 103.627 298.312 100.88C298.312 98.1333 298.952 95.6667 300.232 93.48C301.539 91.2933 303.286 89.5867 305.472 88.36C307.686 87.1333 310.112 86.52 312.752 86.52C315.392 86.52 317.806 87.1333 319.992 88.36C322.206 89.5867 323.939 91.2933 325.192 93.48C326.472 95.6667 327.112 98.1333 327.112 100.88C327.112 103.627 326.472 106.107 325.192 108.32C323.912 110.507 322.179 112.213 319.992 113.44C317.806 114.667 315.392 115.28 312.752 115.28ZM312.752 109.04C314.992 109.04 316.779 108.293 318.112 106.8C319.472 105.307 320.152 103.333 320.152 100.88C320.152 98.4 319.472 96.4267 318.112 94.96C316.779 93.4667 314.992 92.72 312.752 92.72C310.486 92.72 308.672 93.4533 307.312 94.92C305.979 96.3867 305.312 98.3733 305.312 100.88C305.312 103.36 305.979 105.347 307.312 106.84C308.672 108.307 310.486 109.04 312.752 109.04ZM354.717 95.96C354.717 97.5867 354.344 99.08 353.597 100.44C352.851 101.773 351.704 102.853 350.157 103.68C348.611 104.507 346.691 104.92 344.397 104.92H340.157V115H333.317V86.92H344.397C346.637 86.92 348.531 87.3067 350.077 88.08C351.624 88.8533 352.784 89.92 353.557 91.28C354.331 92.64 354.717 94.2 354.717 95.96ZM343.877 99.48C345.184 99.48 346.157 99.1733 346.797 98.56C347.437 97.9467 347.757 97.08 347.757 95.96C347.757 94.84 347.437 93.9733 346.797 93.36C346.157 92.7467 345.184 92.44 343.877 92.44H340.157V99.48H343.877ZM367.518 86.92V115H360.678V86.92H367.518ZM392.355 110.04H381.875L380.195 115H373.035L383.195 86.92H391.115L401.275 115H394.035L392.355 110.04ZM390.595 104.76L387.115 94.48L383.675 104.76H390.595Z" fill="white"/>
</svg>
